# xmcd CD database file
#
# Track frame offsets:
#	150
#	70018
#	102312
#	120160
#	134088
#	137184
#	147117
#	165326
#	183212
#	220457
#
# Disc length: 3575 seconds
#
# Revision: 0
# Processed by: cddbd v1.5.2PL0 Copyright (c) Steve Scherf et al.
# Submitted via: CDex 1.51
#
DISCID=8f0df50a
DTITLE=Steve Coleman and Five Elements - The tao of mad phat
DYEAR=1993
DGENRE=Jazz
TTITLE0=The tao of mad phat
TTITLE1=Alt - shift - return
TTITLE2=Changing of the guard
TTITLE3=Guards of the train
TTITLE4=Relax your guard
TTITLE5=All the guards there are
TTITLE6=Enter the rythm (people)
TTITLE7=Incantation
TTITLE8=Laid back schematics
TTITLE9=Polymad nomads
EXTD=YEAR: 1993
EXTT0=
EXTT1=
EXTT2=
EXTT3=
EXTT4=
EXTT5=
EXTT6=
EXTT7=
EXTT8=
EXTT9=
PLAYORDER=
